<?xml version="1.0" encoding="UTF-8"?>
<svg width="52px" height="68px" viewBox="0 0 52 68" version="1.1" xmlns="http://www.w3.org/2000/svg" xmlns:xlink="http://www.w3.org/1999/xlink">
    <!-- 枪机 正常 -->
    <defs>
        <polygon id="path-1" points="0 0 26.134 0 26.134 13.0667 0 13.0667"></polygon>
        <polygon id="path-3" points="0 0 51.789 0 51.789 60.8659718 0 60.8659718"></polygon>
    </defs>
    <g id="页面-1" stroke="none" stroke-width="1" fill="none" fill-rule="evenodd">
        <g id="视频监控" transform="translate(-716.000000, -385.000000)">
            <g id="编组" transform="translate(716.000000, 385.000000)">
                <g transform="translate(12.827700, 54.340872)">
                    <g>
                        <mask id="mask-2" fill="white">
                            <use xlink:href="#path-1"></use>
                        </mask>
                        <g id="Clip-2"></g>
                        <path d="M13.067,0 C20.284,0 26.134,2.925 26.134,6.533 C26.134,10.142 20.284,13.067 13.067,13.067 C5.85,13.067 0,10.142 0,6.533 C0,2.925 5.85,0 13.067,0" id="Fill-1" fill="#3976FF" opacity="0.6" mask="url(#mask-2)"></path>
                    </g>
                    <path d="M13.067,2.3758 C17.397,2.3758 20.907,4.2368 20.907,6.5338 C20.907,8.8298 17.397,10.6908 13.067,10.6908 C8.737,10.6908 5.227,8.8298 5.227,6.5338 C5.227,4.2368 8.737,2.3758 13.067,2.3758" id="Fill-3" fill="#FFFFFF"></path>
                </g>
                <g>
                    <mask id="mask-4" fill="white">
                        <use xlink:href="#path-3"></use>
                    </mask>
                    <g id="Clip-6"></g>
                    <path d="M25.1274,0.010971758 C12.0564,0.387971758 1.1454,10.6999718 0.0874,23.7339718 C-0.9166,36.1299718 6.8184,46.8769718 17.7924,50.4909718 C19.2604,50.9749718 20.4594,52.0529718 21.1574,53.4349718 L25.8944,60.8659718 L30.6334,53.4319718 C31.3314,52.0529718 32.5274,50.9719718 33.9954,50.4909718 C44.3294,47.0889718 51.7894,37.3679718 51.7894,25.8959718 C51.7894,11.3389718 39.7784,-0.410028242 25.1274,0.010971758" id="Fill-5" fill="#3976FF" mask="url(#mask-4)"></path>
                </g>
                <path d="M25.8941,47.4290718 C13.9331,47.4290718 4.2351,37.7310718 4.2351,25.7700718 C4.2351,13.8090718 13.9331,4.11107176 25.8941,4.11107176 C37.8551,4.11107176 47.5531,13.8090718 47.5531,25.7700718 C47.5531,37.7340718 37.8551,47.4290718 25.8941,47.4290718" id="Fill-7" fill="#FFFFFF"></path>
                <path d="M22.9371,29.6286718 C22.5811,29.6286718 22.2901,29.3376718 22.2901,28.9816718 C22.2901,28.6256718 22.5811,28.3346718 22.9371,28.3346718 C23.2931,28.3346718 23.5841,28.6256718 23.5841,28.9816718 C23.5841,29.3376718 23.2931,29.6286718 22.9371,29.6286718 L22.9371,29.6286718 Z M34.8531,32.6486718 C34.5531,32.6486718 34.2591,32.6086718 33.9741,32.5276718 C33.6881,32.4466718 33.4151,32.3276718 33.1591,32.1716718 L16.6621,22.1136718 C16.4821,22.0026718 16.2501,22.1326718 16.2501,22.3456718 L16.2501,22.9546718 C16.2501,23.3486718 16.4551,23.7156718 16.7891,23.9206718 L21.7101,26.9486718 C21.0231,27.3636718 20.5641,28.1186718 20.5641,28.9816718 C20.5641,29.5266718 20.7481,30.0276718 21.0581,30.4296718 C20.7411,30.7456718 20.3131,30.9226718 19.8661,30.9226718 L16.2501,30.9226718 L16.2501,29.6606718 C16.2501,28.8786718 15.7241,28.1936718 14.9661,27.9916718 L14.5241,27.8756718 L14.5191,37.8256718 L15.2951,37.4406718 C15.8801,37.1486718 16.2531,36.5506718 16.2531,35.8956718 L16.2531,32.6486718 L19.9061,32.6486718 C20.6051,32.6486718 21.2761,32.3706718 21.7721,31.8746718 L21.8561,31.7916718 C22.1421,31.5056718 22.5301,31.3516718 22.9341,31.3516718 L22.9401,31.3516718 C24.1911,31.3516718 25.2161,30.3836718 25.3071,29.1566718 L32.6981,33.7056718 C32.9461,33.8596718 33.2351,33.9406718 33.5261,33.9406718 C33.7901,33.9406718 34.0461,33.8726718 34.2731,33.7546718 C34.4991,33.6326718 34.6961,33.4576718 34.8421,33.2366718 L35.0251,32.9636718 C35.1111,32.8296718 35.0141,32.6486718 34.8531,32.6486718 L34.8531,32.6486718 Z M42.1361,24.8826718 L37.7591,31.0846718 C37.5091,31.4406718 37.1801,31.7236718 36.8051,31.9176718 C36.4301,32.1116718 36.0091,32.2176718 35.5731,32.2176718 C35.0681,32.2176718 34.5751,32.0746718 34.1491,31.8076718 L17.1721,21.1486718 C16.8861,20.9676718 16.6541,20.7196718 16.4951,20.4336718 C16.3361,20.1456718 16.2501,19.8186718 16.2501,19.4816718 C16.2501,19.0696718 16.3791,18.6646718 16.6221,18.3276718 L19.7931,13.9326718 C20.0441,13.5846718 20.3701,13.3096718 20.7391,13.1206718 C21.1091,12.9326718 21.5241,12.8296718 21.9531,12.8296718 C22.4491,12.8296718 22.9341,12.9676718 23.3581,13.2286718 L42.1361,24.8826718 Z" id="Fill-9" fill="#3976FF"></path>
            </g>
        </g>
    </g>
</svg>